<?xml version="1.0" standalone="no"?>
<!DOCTYPE svg PUBLIC "-//W3C//DTD SVG 20010904//EN"
 "http://www.w3.org/TR/2001/REC-SVG-20010904/DTD/svg10.dtd">
<svg version="1.0" xmlns="http://www.w3.org/2000/svg"
 width="1000.000000pt" height="1000.000000pt" viewBox="0 0 1000.000000 1000.000000"
 preserveAspectRatio="xMidYMid meet">

<g transform="translate(0.000000,1000.000000) scale(0.100000,-0.100000)"
fill="#000000" stroke="none">
<path d="M0 5000 l0 -5000 5000 0 5000 0 0 5000 0 5000 -5000 0 -5000 0 0
-5000z m4890 2906 c0 -2 -46 -29 -103 -59 -208 -110 -377 -221 -476 -313 -74
-68 -114 -143 -186 -353 -63 -184 -94 -251 -155 -331 -47 -63 -130 -223 -130
-251 0 -27 13 -24 88 20 130 76 321 119 572 128 180 6 263 -9 115 -21 -324
-26 -548 -132 -732 -346 -84 -97 -173 -231 -230 -344 l-45 -90 33 27 c137 110
365 230 553 292 131 43 312 80 460 94 441 43 895 -67 1257 -304 54 -35 99 -66
99 -69 0 -2 -65 23 -145 55 -452 183 -937 247 -1310 174 -332 -66 -683 -248
-923 -480 -123 -117 -202 -220 -262 -337 l-44 -86 18 -54 c10 -29 55 -143 99
-253 167 -421 380 -815 583 -1081 137 -179 -66 28 -240 246 -242 303 -386 544
-509 856 -75 187 -100 281 -100 374 0 111 25 168 266 605 55 101 168 275 190
293 12 10 12 21 -1 79 -18 86 -11 260 12 323 9 24 52 99 95 165 43 66 122 207
175 312 113 226 174 320 265 412 143 145 318 232 596 296 110 26 115 27 115
21z m463 -107 c197 -99 340 -216 390 -320 15 -30 49 -130 77 -224 85 -286 96
-308 264 -540 88 -121 86 -129 -9 -28 -47 51 -135 135 -195 188 -99 87 -114
105 -150 178 -29 58 -54 137 -87 267 -25 102 -55 204 -65 228 -27 57 -128 147
-273 244 -66 44 -122 82 -124 84 -11 10 81 -31 172 -77z m357 -1147 c209 -131
505 -402 647 -592 200 -268 336 -548 350 -720 6 -66 5 -70 -55 -205 -155 -347
-375 -674 -632 -938 -208 -215 -616 -540 -822 -657 -32 -17 -58 -30 -58 -27 0
12 143 126 152 121 6 -4 8 -2 5 3 -4 6 60 71 141 144 329 299 670 660 819 867
55 77 266 436 368 628 l37 70 -72 145 c-99 196 -146 278 -266 459 -148 225
-247 335 -500 559 -120 107 -226 201 -234 209 -16 16 27 -8 120 -66z m-1890
-1053 c0 -7 -14 -55 -31 -108 -42 -132 -48 -197 -19 -233 17 -22 30 -28 61
-28 47 0 59 19 35 55 -24 36 -20 60 19 116 25 37 35 62 35 90 0 22 3 39 8 39
73 5 334 13 384 13 84 -2 132 -24 253 -122 50 -40 114 -87 143 -104 28 -17 52
-38 52 -45 0 -7 14 -27 31 -44 28 -29 34 -30 85 -25 66 7 69 -3 13 -52 -22
-20 -68 -62 -101 -93 -55 -53 -83 -68 -153 -80 -13 -2 0 -11 40 -26 52 -20 68
-21 125 -14 54 8 76 6 127 -10 38 -12 63 -25 63 -34 0 -7 -13 -28 -29 -46 -28
-31 -33 -33 -95 -32 -54 1 -66 -1 -66 -14 0 -9 -5 -30 -12 -48 -10 -27 -8 -36
11 -67 27 -44 71 -65 161 -76 98 -13 105 -20 73 -81 -14 -27 -34 -52 -43 -55
-10 -3 -28 -31 -41 -62 -12 -31 -36 -72 -52 -90 -81 -93 -172 -84 -339 30 -38
26 -68 45 -68 42 0 -11 110 -105 189 -163 47 -34 96 -77 109 -95 22 -30 23
-38 17 -133 -8 -117 -1 -151 56 -276 67 -145 41 -185 -67 -105 -32 24 -125
101 -206 170 l-146 127 -61 118 c-71 141 -105 251 -128 416 -13 97 -21 127
-40 151 -13 17 -44 60 -69 96 -48 71 -58 108 -98 362 -24 146 -43 170 -60 74
-13 -72 -110 -150 -165 -132 -13 4 -50 69 -111 190 -104 209 -104 210 -34 306
54 74 144 135 144 98z m-345 -1460 l67 -51 -143 -63 c-228 -99 -520 -239 -673
-321 -279 -151 -360 -216 -523 -421 -106 -133 -287 -391 -423 -603 -62 -96
-117 -179 -122 -185 -13 -14 61 190 118 326 151 359 342 639 519 764 33 23
119 72 190 110 72 37 202 109 290 158 172 98 616 337 626 337 3 0 36 -23 74
-51z m3277 -166 c406 -279 513 -342 594 -349 61 -6 140 -48 240 -129 248 -198
426 -463 565 -839 29 -77 81 -257 76 -262 -1 -1 -24 46 -52 104 -132 281 -283
526 -409 659 -42 44 -73 83 -71 87 3 3 2 4 -1 1 -4 -2 -31 13 -61 35 -34 24
-75 43 -108 50 -177 37 -453 -124 -780 -454 l-119 -121 58 109 c88 167 175
292 297 422 193 209 202 235 114 322 -139 134 -382 180 -541 102 -77 -37 -187
-150 -436 -446 -97 -115 -176 -200 -181 -195 -4 4 37 84 96 182 57 96 144 246
192 334 189 341 282 445 397 445 41 0 58 -7 130 -57z m-858 -980 c-63 -76 -72
-84 -49 -48 10 17 32 52 49 78 19 31 33 44 39 38 6 -6 -8 -30 -39 -68z"/>
</g>
</svg>
