<?xml version="1.0" encoding="iso-8859-1"?>
<!-- Generator: Adobe Illustrator 19.0.0, SVG Export Plug-In . SVG Version: 6.00 Build 0)  -->
<svg version="1.1" id="Layer_1" xmlns="http://www.w3.org/2000/svg" xmlns:xlink="http://www.w3.org/1999/xlink" x="0px" y="0px"
	 viewBox="0 0 512.001 512.001" style="enable-background:new 0 0 512.001 512.001;" xml:space="preserve">
<g>
	<g>
		<g>
			<path d="M237.724,192.012c0-4.485-3.636-8.121-8.121-8.121h-98.489c-6.537,0-11.855-5.318-11.855-11.855v-52.162
				c0-6.537,5.319-11.855,11.855-11.855h140.951c6.536,0,11.854,5.318,11.854,11.855v52.162c0,6.537-5.318,11.855-11.854,11.855
				H255.59c-4.485,0-8.121,3.636-8.121,8.121c0,4.485,3.636,8.121,8.121,8.121h16.475c15.494,0,28.097-12.604,28.097-28.098v-52.162
				c0-15.493-12.604-28.098-28.097-28.098H131.113c-15.493,0-28.098,12.604-28.098,28.098v52.162
				c0,15.493,12.604,28.098,28.098,28.098h98.49C234.088,200.133,237.724,196.497,237.724,192.012z"/>
			<path d="M223.76,334.724h-49.942c-4.485,0-8.121,3.636-8.121,8.121c0,4.485,3.636,8.121,8.121,8.121h49.942
				c4.485,0,8.121-3.636,8.121-8.121C231.882,338.36,228.246,334.724,223.76,334.724z"/>
			<path d="M223.76,373.014h-49.942c-4.485,0-8.121,3.636-8.121,8.121c0,4.485,3.636,8.121,8.121,8.121h49.942
				c4.485,0,8.121-3.636,8.121-8.121C231.882,376.651,228.246,373.014,223.76,373.014z"/>
			<path d="M451.509,212.753h-31.578c-16.493,0-29.912-13.417-29.912-29.908v-8.28c0-16.492,13.419-29.91,29.912-29.91h65.854
				c4.486,0,8.121-3.636,8.121-8.121s-3.635-8.121-8.121-8.121h-65.854c-25.449,0-46.155,20.704-46.155,46.152v8.28
				c0,25.448,20.705,46.151,46.155,46.151h31.578c16.494,0,29.912,13.418,29.912,29.911v8.279c0,16.492-13.419,29.91-29.912,29.91
				H322.144c-7.164-3.523-14.909-6.747-23.206-9.644c-3.084-1.076-6.292-1.622-9.536-1.622c-2.871,0-5.665,0.442-8.322,1.242
				c-5.139-4.34-10.999-7.565-17.308-9.537c49.345-23.377,83.559-73.66,83.559-131.791C347.331,65.38,281.952,0,201.588,0
				C121.226,0,55.846,65.38,55.846,145.743c0,58.148,34.236,108.445,83.604,131.813c-5.39,1.688-10.473,4.279-15.048,7.697
				c-3.082-1.106-6.387-1.715-9.817-1.715c-2.906,0-5.798,0.44-8.591,1.308c-57.391,17.835-91.655,51.726-91.655,90.66
				c0,15.953,12.978,28.931,28.931,28.931s28.931-12.978,28.931-28.931c0-7.461,11.054-18.721,31.873-28.193v93.306v43.284
				c0,15.495,12.606,28.099,28.099,28.099h14.43c15.493,0,28.099-12.605,28.099-28.099V448.74h53.775v35.162
				c0,15.495,12.604,28.099,28.098,28.099h14.43c15.495,0,28.099-12.605,28.099-28.099v-43.284v-90.33
				c16.948,8.817,25.72,18.578,25.72,25.216c0,15.953,12.978,28.931,28.931,28.931s28.931-12.978,28.931-28.931
				c0-23.491-12.063-44.893-34.232-62.167h103.057c25.449,0,46.155-20.704,46.155-46.152v-8.279
				C497.664,233.457,476.959,212.753,451.509,212.753z M72.089,145.743c0-71.407,58.093-129.5,129.499-129.5
				c71.407,0,129.5,58.093,129.5,129.5s-58.093,129.5-129.5,129.5C130.182,275.242,72.089,217.148,72.089,145.743z M113.998,325.997
				c-0.09,0.03-0.18,0.062-0.271,0.092c-35.761,12.05-57.769,30.759-57.769,49.415c0,6.995-5.691,12.688-12.688,12.688
				s-12.688-5.692-12.688-12.688c0-31.444,29.993-59.536,80.233-75.148c1.232-0.383,2.5-0.577,3.771-0.577
				c2.319,0,4.511,0.627,6.405,1.734c0.1,0.068,0.192,0.144,0.294,0.208c2.245,1.399,3.985,3.452,4.995,5.855
				c0.011,0.027,0.025,0.053,0.036,0.08c0.141,0.343,0.269,0.693,0.379,1.049c0.519,1.67,0.674,3.369,0.51,5.008
				c-0.492,4.921-3.852,9.318-8.863,10.875C116.869,325.045,115.427,325.517,113.998,325.997z M158.459,483.901
				c0,6.538-5.319,11.856-11.856,11.856h-14.43c-6.537,0-11.856-5.319-11.856-11.856v-35.162h38.143V483.901z M236.597,432.496
				H166.58h-46.264v-91.483c0.937-0.309,1.884-0.613,2.847-0.912c0.476-0.148,0.945-0.308,1.409-0.478
				c14.346-5.272,22.219-20.979,17.634-35.737c0,0,0,0,0-0.001s0,0,0-0.001c-0.011-0.034-0.025-0.066-0.036-0.1
				c-0.933-2.966-2.302-5.692-4.023-8.119c4.982-2.728,10.596-4.181,16.391-4.181h94.099c6.551,0,12.789,1.816,18.176,5.214
				c-0.058,0.073-0.107,0.152-0.165,0.224c-0.324,0.414-0.632,0.839-0.935,1.271c-0.155,0.221-0.314,0.437-0.463,0.663
				c-0.284,0.43-0.547,0.874-0.808,1.32c-0.14,0.238-0.287,0.471-0.42,0.714c-0.258,0.472-0.492,0.959-0.724,1.448
				c-0.108,0.227-0.228,0.448-0.331,0.679c-0.321,0.721-0.616,1.458-0.879,2.211c-0.985,2.824-1.506,5.7-1.603,8.544
				c-0.016,0.474-0.021,0.948-0.013,1.419c0.185,11.793,7.628,22.781,19.393,26.888c0.972,0.339,1.94,0.689,2.903,1.044
				c0.03,0.011,0.061,0.023,0.091,0.035v89.339H236.597z M282.862,483.901h-0.001c0,6.538-5.319,11.856-11.856,11.856h-14.43
				c-6.537,0-11.855-5.319-11.855-11.856v-35.162h38.143V483.901z M366.441,375.504c0,6.995-5.692,12.688-12.688,12.688
				c-6.996,0-12.688-5.692-12.688-12.688c0-17.483-19.011-34.872-51.122-47.034c-0.165-0.063-0.328-0.125-0.494-0.187
				c-1.389-0.521-2.794-1.037-4.231-1.539c-0.825-0.288-1.603-0.654-2.326-1.085c-5.062-3.022-7.487-9.295-5.469-15.077
				c0.002-0.008,0.006-0.014,0.009-0.022c0.118-0.337,0.252-0.667,0.397-0.991c0.043-0.097,0.093-0.19,0.14-0.285
				c0.115-0.238,0.233-0.475,0.363-0.706c0.049-0.088,0.102-0.172,0.152-0.259c0.145-0.245,0.297-0.486,0.458-0.72
				c0.038-0.056,0.077-0.11,0.116-0.166c1.093-1.532,2.525-2.819,4.216-3.752c0.076-0.042,0.144-0.093,0.218-0.136
				c1.786-0.943,3.802-1.474,5.91-1.474c1.417,0,2.823,0.24,4.182,0.715C339.887,318.95,366.441,345.455,366.441,375.504z"/>
		</g>
	</g>
</g>
<g>
</g>
<g>
</g>
<g>
</g>
<g>
</g>
<g>
</g>
<g>
</g>
<g>
</g>
<g>
</g>
<g>
</g>
<g>
</g>
<g>
</g>
<g>
</g>
<g>
</g>
<g>
</g>
<g>
</g>
</svg>
